<?xml version="1.0" encoding="utf-8" ?><svg xmlns="http://www.w3.org/2000/svg" xmlns:xlink="http://www.w3.org/1999/xlink" width="1278" height="1278" viewBox="0 0 1278 1278"><path fill="#1A2127" transform="scale(1.24789 1.24789)" d="M0 0L1024 0L1024 511.909L1024 1024L0 1024L0 511.941L0 0Z"/><path fill="#FEFEFE" transform="scale(1.24789 1.24789)" d="M0 0L1024 0L1024 511.909L664.126 512.024L0 511.941L0 0Z"/><path fill="#1A2127" transform="scale(1.24789 1.24789)" d="M287.486 211.486L306.241 211.516C306.614 214.375 307.555 218.226 308.27 221.047C314.382 245.173 319.944 269.878 326.85 293.78C334.131 268.171 342.766 237.551 348.861 212.023C354.566 212.387 361.934 212.263 367.77 212.307C375.576 238.867 380.87 266.589 389.542 293.376C397.237 267.194 403.442 238.565 410.817 211.985L428.804 212.321C426.742 218.782 424.955 226.14 423.212 232.761C421.567 241.058 418.278 250.237 416.193 258.485C411.132 278.507 404.657 299.163 400.093 319.196C393.309 319.046 386.522 319.008 379.737 319.082C377.407 307.782 372.186 291.288 369.082 279.769C366.202 269.085 361.432 249.011 357.525 239.162C350.749 265.867 343.708 292.503 336.401 319.068L315.968 319.002C314.215 311.408 311.532 302.629 309.504 294.935L295.356 241.51C292.665 231.505 289.62 221.611 287.486 211.486Z"/><path fill="#1A2127" transform="scale(1.24789 1.24789)" d="M601.024 210.469C606.22 210.286 612.586 210.464 617.859 210.481L617.817 318.971L600.934 318.991L600.742 308.417C588.388 320.976 576.223 323.494 559.9 317.005C520.064 297.994 539.415 230.323 585.098 242.789C590.975 244.392 596.255 248.542 600.93 252.291C600.642 238.645 600.943 224.176 601.024 210.469Z"/><path fill="#FEFEFE" transform="scale(1.24789 1.24789)" d="M575.596 257.393C588.451 255.864 600.144 264.962 601.82 277.799C603.496 290.636 594.531 302.431 581.714 304.253C573.292 305.45 564.877 302.029 559.68 295.294C554.483 288.56 553.307 279.552 556.601 271.709C559.895 263.866 567.149 258.398 575.596 257.393Z"/><path fill="#4B5563" transform="scale(1.24789 1.24789)" d="M169.353 163.215C172.05 162.973 180.598 162.809 183.239 162.997C201.399 164.287 236.212 167.229 248.59 181.28C259.002 193.099 262.658 209.43 261.907 224.546C244.499 208.701 216.906 196.607 193.845 193.544C185.416 192.424 179.191 192.422 170.839 192.565C159.711 193.713 134.932 196.532 128.008 206.939C122.116 215.796 125.762 232.334 127.863 242.406C120.602 241.071 111.072 240.068 103.665 239.117C85.0577 182.866 119.706 166.336 169.353 163.215Z"/><path fill="#1A2127" transform="scale(1.24789 1.24789)" d="M679.775 211.21C704.603 209.683 721.373 228.032 728.253 250.109L710.279 250.077C703.722 232.785 689.56 225.649 671.328 229.601C661.69 231.69 653.922 239.479 649.909 248.353C645.506 258.257 645.205 269.502 649.07 279.627C652.44 288.499 659.266 295.623 667.986 299.367C675.789 302.743 684.615 302.875 692.516 299.735C701.216 296.18 706.498 290.225 710.101 281.709C714.609 281.984 720.514 281.823 725.125 281.829C726.136 281.821 726.087 281.882 727.095 282.113L727.44 283.169C727.124 285.966 725.866 287.919 724.788 290.453C717.876 306.716 703.735 316.159 686.641 318.651C685.06 327.647 682.742 344.918 680.6 353.044C679.041 341.731 676.915 330.155 674.985 318.875C664.727 317.461 656.219 313.863 648.337 307.096C637.077 297.587 630.188 283.893 629.265 269.184C627.188 237.636 648.166 213.31 679.775 211.21Z"/><path fill="#1A2127" transform="scale(1.24789 1.24789)" d="M457.962 241.671C458.584 241.616 459.209 241.576 459.833 241.551C480.461 240.771 495.97 254.811 499.108 274.977C499.724 278.937 499.908 282.393 500.055 286.409L439.663 286.249C440.746 291.3 442.208 296.299 446.413 299.598C458.154 308.809 471.688 306.519 481.13 296.217L484.929 296.129L498.062 296.198C497.022 299.163 495.663 302.03 493.796 304.566C487.786 312.598 478.792 317.868 468.847 319.184C413.817 326.932 407.57 248.232 457.962 241.671Z"/><path fill="#FEFEFE" transform="scale(1.24789 1.24789)" d="M457.994 256.101C472.026 254.804 479.09 260.525 483.43 273.304C477.692 273.405 471.953 273.453 466.214 273.449C457.453 273.496 448.692 273.497 439.932 273.453C443.227 263.148 447.165 258.755 457.994 256.101Z"/><path fill="#1A2127" transform="scale(1.24789 1.24789)" d="M768.902 241.682C797.251 239.564 810.234 260.307 811.403 286.085L750.958 286C753.765 303.29 768.189 308.9 784.257 303.054C788.699 301.438 788.764 296.742 795.375 296.421L808.806 296.471C795.474 331.883 738.925 325.163 734.997 286.708C732.595 263.192 744.923 244.553 768.902 241.682Z"/><path fill="#FEFEFE" transform="scale(1.24789 1.24789)" d="M769.091 256.07C782.862 255.104 790.482 260.7 794.713 273.558C789.166 273.698 783.618 273.756 778.07 273.734C770.362 273.658 758.242 273.932 750.837 273.426C754.054 263.15 758.076 258.537 769.091 256.07Z"/><path fill="#4B5563" transform="scale(1.24789 1.24789)" d="M107.589 252.434C118.322 253.631 129.1 254.378 139.896 254.674C144.379 273.651 159.842 296.704 175.88 307.668C180.884 305.286 185.73 301.189 190.129 297.743C196.398 305.219 203.926 314.29 210.593 321.298C208.538 323.33 206.313 325.387 204.213 327.391C197.998 332.601 192.066 340.495 184.43 343.314C171.978 347.911 161.329 335.387 153.686 327.229C134.467 306.715 115.91 279.42 107.589 252.434Z"/><path fill="#EFAA4C" transform="scale(1.24789 1.24789)" d="M150.01 231.905C171.013 217.734 191.883 210.462 217.388 215.483C232.788 218.514 248.232 225.328 260.961 234.538C251.494 264.977 238.395 287.092 219.058 311.871L199.138 288.899C206.826 280.239 218.265 267.671 217.572 255.351C217.252 249.652 214.441 244.131 211.899 239.146C222.006 241.724 230.479 245.7 239.487 250.944C243.272 253.147 248.763 256.817 252.596 258.375C237.381 241.951 213.249 227.519 190.526 226.706C181.32 226.462 172.127 227.558 163.236 229.959C161.17 230.503 154.343 232.682 153.041 232.877C152.743 232.851 152.445 232.83 152.147 232.812C151.169 232.763 150.787 232.462 150.01 231.905Z"/><path fill="#1A2127" transform="scale(1.24789 1.24789)" d="M887.614 220.395C893.23 220.348 898.847 220.347 904.463 220.39L904.431 243.375L922.054 243.412C922.126 247.915 922.17 252.418 922.185 256.921L904.486 256.896C904.455 263.425 904.425 270.107 904.395 276.629C904.321 292.786 902.209 307.11 924.185 302.03C924.223 307.412 924.324 312.793 924.487 318.172C886.056 326.038 886.57 295.586 887.528 268.367C887.655 264.746 887.506 260.505 887.494 256.814L876.118 256.835C875.494 252.843 876.333 247.302 875.646 243.894C875.604 243.683 872.891 242.035 871.86 245.477L871.566 246.444L871.512 242.912C873.292 242.459 874.543 242.415 876.318 242.936C880.024 243.087 883.734 243.132 887.442 243.07L887.614 220.395Z"/><path fill="#C8C5C8" transform="scale(1.24789 1.24789)" d="M871.512 242.912C873.292 242.459 874.543 242.415 876.318 242.936C876.365 246.972 876.587 252.992 876.118 256.835C875.494 252.843 876.333 247.302 875.646 243.894C875.604 243.683 872.891 242.035 871.86 245.477L871.566 246.444L871.512 242.912Z"/><path fill="#1A2127" transform="scale(1.24789 1.24789)" d="M510.581 210.417L527.502 210.496L527.47 318.861L510.699 318.848C511.162 283.1 510.601 246.272 510.581 210.417Z"/><path fill="#1A2127" transform="scale(1.24789 1.24789)" d="M839.444 253.015C850.16 241.898 856.409 240.279 871.512 242.912L871.566 246.444L871.514 259.874C848.801 253.719 838.53 263.194 839.44 286.45C839.844 296.749 839.625 308.446 839.752 318.875C834.222 318.939 828.377 318.801 822.822 318.756C823.701 294.988 822.968 267.096 822.919 243.094L839.469 243.035L839.444 253.015Z"/><path fill="#E7B079" transform="scale(1.24789 1.24789)" d="M150.01 231.905C150.787 232.462 151.169 232.763 152.147 232.812C152.445 232.83 152.743 232.851 153.041 232.877C150.178 234.277 146.665 235.431 143.632 236.525C145.72 234.933 147.847 233.393 150.01 231.905Z"/><path fill="#FEFEFE" transform="scale(1.24789 1.24789)" d="M289.667 722.521L308.244 722.644C313.843 748.719 321.969 777.007 328.969 802.913C331.596 795.007 333.382 784.833 335.69 776.595C340.668 758.825 345.335 740.985 349.817 723.083L368.817 723.272C370.809 732.049 373.968 741.815 376.356 750.628C380.907 767.892 385.616 785.115 390.482 802.293C391.657 799.175 392.692 795.52 393.502 792.26C399.251 769.122 405.317 746.155 410.684 722.921L429.494 722.905C427.415 729.854 425.401 736.822 423.454 743.809C416.249 772.14 407.68 800.967 400.671 829.167C394.063 828.936 387.008 829.011 380.362 828.978C375.741 811.12 370.977 793.299 366.072 775.517C363.769 766.97 361.567 757.71 358.983 749.309L337.788 829.15C331.208 829.052 324.512 829.088 317.921 829.059C308.126 793.914 299.003 757.843 289.667 722.521Z"/><path fill="#4B5563" transform="scale(1.24789 1.24789)" d="M169.798 673.71C172.502 673.416 181.152 673.382 183.934 673.528C201.532 674.453 236.754 678.713 249.055 692.304C259.811 704.188 262.79 720.356 262.272 735.714C234.741 713.229 207.876 703.184 172.105 703.538C160.626 704.899 136.303 707.664 128.539 716.944C121.747 725.063 126.552 742.613 127.698 752.631C121.558 752.316 109.672 750.774 103.528 749.849C101.843 742.421 99.8823 734.766 99.2796 727.291C97.1186 700.487 114.046 683.392 139.313 678.136C150.106 675.891 158.826 674.573 169.798 673.71Z"/><path fill="#FEFEFE" transform="scale(1.24789 1.24789)" d="M599.489 723.089L616.2 723.061C616.465 758.212 616.496 793.364 616.293 828.516L600.001 828.478C599.627 825.275 599.613 822.037 599.524 818.809C586.747 830.278 576.405 833.175 560.122 826.556C556.819 824.947 553.766 822.867 551.059 820.383C542.731 812.695 540.215 803.953 539.404 792.978C537.03 760.858 574.068 738.203 598.953 762.197L599.489 723.089Z"/><path fill="#1A2127" transform="scale(1.24789 1.24789)" d="M573.158 768.635C585.544 766.109 597.626 774.126 600.113 786.52C602.6 798.914 594.547 810.971 582.145 813.42C569.798 815.858 557.805 807.847 555.328 795.507C552.852 783.167 560.826 771.149 573.158 768.635Z"/><path fill="#FEFEFE" transform="scale(1.24789 1.24789)" d="M675.065 829.613C661.138 828.25 648.343 821.347 639.557 810.456C630.101 798.757 626.651 784.049 628.326 769.233C630.035 754.833 637.37 741.693 648.729 732.68C670.47 715.708 701.85 718.13 718.938 740.385C723.576 746.345 726.869 753.238 728.591 760.592L711.08 760.529C698.323 729.016 659.676 730.808 647.746 760.318C643.5 770.71 643.569 782.365 647.937 792.706C655.769 810.755 676.002 819.634 694.163 811.393C701.654 807.944 707.494 801.697 710.433 793.992C710.741 793.185 710.735 793.164 710.939 792.458C716.549 792.527 722.952 792.476 728.484 792.76C722.226 813.515 707.592 825.607 686.706 829.946C685.68 835.556 682.208 856.266 680.67 861.12L680.232 860.794L675.065 829.613Z"/><path fill="#FEFEFE" transform="scale(1.24789 1.24789)" d="M771.466 751.71C789.521 751.668 803.742 761.127 808.85 778.759C810.687 785.101 810.663 789.815 810.716 796.334C790.799 796.382 770.276 795.844 750.46 796.218C754.342 817.324 780.362 822.22 792.438 804.537L798.798 804.618L809.381 804.565C804.084 818.754 792.66 827.693 777.515 828.985C725.103 833.458 717.424 756.306 771.466 751.71Z"/><path fill="#1A2127" transform="scale(1.24789 1.24789)" d="M770.97 765.642C784.415 765.321 791.247 771.21 795.002 783.64L775.75 783.599L751.074 783.537L751.494 782.098L751.729 781.342C754.736 771.437 761.02 767.142 770.97 765.642Z"/><path fill="#FEFEFE" transform="scale(1.24789 1.24789)" d="M460.05 751.189C487.947 750.563 499.158 770.68 500.104 795.959L440.012 795.929C445.653 818.517 468.079 821.066 481.949 804.432L488.561 804.39L498.496 804.038C496.816 808.177 495.124 811.468 492.35 815.021C486.446 822.629 477.719 827.531 468.15 828.614C414.865 835.121 407.047 756.201 460.05 751.189Z"/><path fill="#1A2127" transform="scale(1.24789 1.24789)" d="M460.886 765.191C473.612 765.235 479.773 771.123 483.9 782.62C477.476 782.729 471.05 782.78 464.625 782.773C456.408 782.794 448.192 782.756 439.975 782.658C443.82 771.269 448.407 766.338 460.886 765.191Z"/><path fill="#4B5563" transform="scale(1.24789 1.24789)" d="M108.024 763.491C117.164 764.259 131.678 765.082 140.348 766.592C146.494 785.166 160.055 807.672 176.485 818.732C181.519 816.093 186.528 811.647 190.95 807.967C196.196 815.129 204.862 825.122 210.652 832.028C208.59 834.333 205.888 836.927 203.673 839.16C185.265 857.345 177.738 862.513 158.164 842.178C135.836 818.981 118.447 794.108 108.024 763.491Z"/><path fill="#EFAA4C" transform="scale(1.24789 1.24789)" d="M145.038 748.036C159.751 733.985 182.084 724.647 202.497 725.097C223.946 725.571 243.386 733.298 261.339 744.587C252.662 773.098 238.451 799.62 219.518 822.636C212.798 815.255 206.289 807.685 199.998 799.935C207.571 790.889 218.804 777.945 217.727 765.388C217.226 759.554 214.441 754.352 211.659 749.356C224.356 753.984 238.259 759.305 249.43 767.11L250.149 766.319C215.018 736.114 189.166 728.933 145.038 748.036Z"/><path fill="#412A0D" transform="scale(1.24789 1.24789)" d="M250.149 766.319C250.544 766.717 251.608 767.61 251.665 768.207C251.343 768.721 250.101 767.601 249.933 767.477L249.43 767.11L250.149 766.319Z"/><path fill="#FEFEFE" transform="scale(1.24789 1.24789)" d="M887.644 731.426C892.956 731.184 898.959 731.347 904.324 731.376L904.468 753.586C910.385 753.593 916.301 753.664 922.216 753.799C922.36 758.223 922.245 763.029 922.224 767.483L904.497 767.512C904.453 778.88 903.932 791.821 904.883 803.079C905.914 815.274 915.324 814.375 924.708 812.281L924.661 822.625L924.535 828.194C914.277 830.102 903.445 830.42 895.5 822.167C886.733 813.059 887.85 799.594 887.839 787.921L887.847 767.437L876.506 767.336L876.513 753.539L887.708 753.524L887.644 731.426Z"/><path fill="#FEFEFE" transform="scale(1.24789 1.24789)" d="M511.295 721.046L528.129 721.005L528.005 828.779C522.44 828.89 516.873 828.867 511.309 828.709C510.682 816.387 511.035 800.5 511.013 787.937C510.943 765.64 511.036 743.342 511.295 721.046Z"/><path fill="#FEFEFE" transform="scale(1.24789 1.24789)" d="M856.093 752.595C862.203 751.993 865.604 752.133 871.389 753.873L871.483 769.752C862.568 768.195 852.302 766.969 845.074 773.781C837.869 780.57 839.451 792.997 839.468 802.133L839.509 828.782L832.134 828.82L822.854 828.624C822.781 803.74 822.873 778.855 823.128 753.971C828.664 753.865 834.201 753.844 839.737 753.906L839.666 762.321C845.641 756.255 847.732 754.697 856.093 752.595Z"/><path fill="#929699" transform="scale(1.24789 1.24789)" d="M680.232 860.794L680.67 861.12C680.697 861.69 680.878 861.819 680.574 862.208C680.135 861.962 680.233 861.154 680.232 860.794Z"/></svg>